<svg xmlns="http://www.w3.org/2000/svg" fill-rule="evenodd" stroke-linejoin="round" stroke-miterlimit="2" clip-rule="evenodd" viewBox="0 0 64 64" id="text-file"><path d="M1982,343.657C1982,342.066 1981.37,340.539 1980.24,339.414L1972.59,331.757C1971.46,330.632 1969.93,330 1968.34,330C1963.73,330 1950.66,330 1944,330C1942.41,330 1940.88,330.632 1939.76,331.757C1938.63,332.883 1938,334.409 1938,336C1938,346.308 1938,373.692 1938,384C1938,387.314 1940.69,390 1944,390L1976,390C1977.59,390 1979.12,389.368 1980.24,388.243C1981.37,387.117 1982,385.591 1982,384L1982,343.657ZM1978,343.657L1978,384C1978,384.53 1977.79,385.039 1977.41,385.414C1977.04,385.789 1976.53,386 1976,386L1944,386C1942.89,386 1942,385.105 1942,384C1942,373.692 1942,346.308 1942,336C1942,335.47 1942.21,334.961 1942.59,334.586C1942.96,334.211 1943.47,334 1944,334L1968.34,334C1968.87,334 1969.38,334.211 1969.76,334.586C1969.76,334.586 1977.41,342.243 1977.41,342.243C1977.79,342.618 1978,343.126 1978,343.657ZM1950,374L1970,374C1971.1,374 1972,373.104 1972,372C1972,370.896 1971.1,370 1970,370L1950,370C1948.9,370 1948,370.896 1948,372C1948,373.104 1948.9,374 1950,374ZM1950,366L1970,366C1971.1,366 1972,365.104 1972,364C1972,362.896 1971.1,362 1970,362L1950,362C1948.9,362 1948,362.896 1948,364C1948,365.104 1948.9,366 1950,366ZM1953,350L1953,358C1953,359.104 1953.9,360 1955,360C1956.1,360 1957,359.104 1957,358L1957,350L1960,350C1961.1,350 1962,349.104 1962,348C1962,346.896 1961.1,346 1960,346L1950,346C1948.9,346 1948,346.896 1948,348C1948,349.104 1948.9,350 1950,350L1953,350ZM1966,358L1970,358C1971.1,358 1972,357.104 1972,356C1972,354.896 1971.1,354 1970,354L1966,354C1964.9,354 1964,354.896 1964,356C1964,357.104 1964.9,358 1966,358ZM1966,350L1970,350C1971.1,350 1972,349.104 1972,348C1972,346.896 1971.1,346 1970,346L1966,346C1964.9,346 1964,346.896 1964,348C1964,349.104 1964.9,350 1966,350Z" transform="translate(-1928 -328)"></path></svg>